<svg width="720" height="720" viewBox="0 0 720 720" fill="none" xmlns="http://www.w3.org/2000/svg">
  <rect width="720" height="720" rx="48" fill="#F8FAFC"/>
  <rect x="32" y="32" width="656" height="656" rx="40" fill="url(#bg)" stroke="#E2E8F0" stroke-width="2"/>
  <circle cx="578" cy="132" r="92" fill="#FFFFFF" fill-opacity="0.45"/>
  <circle cx="146" cy="586" r="112" fill="#FFFFFF" fill-opacity="0.38"/>
  <rect x="176" y="134" width="368" height="368" rx="40" fill="white" stroke="#CBD5E1" stroke-width="2"/>
  <rect x="224" y="182" width="112" height="112" rx="18" fill="#1E293B"/>
  <rect x="248" y="206" width="64" height="64" rx="10" fill="white"/>
  <rect x="384" y="182" width="112" height="112" rx="18" fill="#1E293B"/>
  <rect x="408" y="206" width="64" height="64" rx="10" fill="white"/>
  <rect x="224" y="342" width="112" height="112" rx="18" fill="#1E293B"/>
  <rect x="248" y="366" width="64" height="64" rx="10" fill="white"/>
  <rect x="384" y="342" width="32" height="32" rx="8" fill="#4F46E5"/>
  <rect x="432" y="342" width="64" height="32" rx="8" fill="#1E293B"/>
  <rect x="384" y="390" width="80" height="32" rx="8" fill="#1E293B"/>
  <rect x="480" y="390" width="16" height="64" rx="8" fill="#4F46E5"/>
  <rect x="384" y="438" width="32" height="16" rx="8" fill="#1E293B"/>
  <text x="360" y="562" text-anchor="middle" fill="#0F172A" font-family="Arial, 'Microsoft YaHei', sans-serif" font-size="34" font-weight="700">收款码占位</text>
  <text x="360" y="606" text-anchor="middle" fill="#475569" font-family="Arial, 'Microsoft YaHei', sans-serif" font-size="22">正式部署时替换为公司微信 / 支付宝收款码</text>
  <defs>
    <linearGradient id="bg" x1="74" y1="72" x2="648" y2="672" gradientUnits="userSpaceOnUse">
      <stop stop-color="#EEF2FF"/>
      <stop offset="0.52" stop-color="#F5F3FF"/>
      <stop offset="1" stop-color="#ECFEFF"/>
    </linearGradient>
  </defs>
</svg>
